<svg preserveAspectRatio="none" width="100%" height="100%" overflow="visible" style="display: block;" viewBox="0 0 194 29.3451" fill="none" xmlns="http://www.w3.org/2000/svg">
<g id="BambooHR&#194;&#174;_logo (1) 1" clip-path="url(#clip0_19_2243)">
<path id="Vector" d="M27.0471 9.29537C23.5257 9.29537 21.641 10.5022 20.3184 11.8166L19.9588 12.1968V0H16.9168V19.7025C16.9168 25.6418 21.4922 29.3451 26.7412 29.3451C32.5235 29.3451 36.9046 24.8937 36.9046 19.1735C36.9046 13.8625 32.3375 9.29537 27.0471 9.29537ZM26.7412 26.5263C22.9098 26.5263 19.6653 23.505 19.6653 19.4587C19.6653 15.4124 22.3973 12.0852 26.8074 12.0852C31.2174 12.0852 33.813 15.6521 33.813 19.3843C33.813 23.4471 31.0645 26.5263 26.7371 26.5263H26.7412Z" fill="var(--fill-0, #599D15)"/>
<path id="Vector_2" d="M55.4044 12.6308H55.363C54.0694 11.1057 52.0772 9.30777 48.6715 9.30777C43.0753 9.30777 38.8471 13.4905 38.8471 19.2851C38.8471 25.3897 43.3894 29.3451 48.4731 29.3451C51.6432 29.3451 53.9536 27.82 55.3217 26.175H55.4002V28.6797H58.4918V9.93187H55.4002V12.6308H55.4044ZM48.7087 26.5304C44.1375 26.5304 41.9304 22.8478 41.9304 19.2851C41.9304 15.7224 44.1375 12.0811 48.7872 12.0811C52.4285 12.0811 55.4085 14.9867 55.4085 19.4008C55.4085 23.5835 52.1929 26.5263 48.7087 26.5263V26.5304Z" fill="var(--fill-0, #599D15)"/>
<path id="Vector_3" d="M82.7449 9.30777C79.4963 9.30777 77.2272 11.3041 76.289 13.1805C75.5037 10.9899 73.1189 9.30777 70.1844 9.30777C67.7582 9.30777 65.8405 10.6014 64.5881 12.2795H64.5096V9.93187H61.4139V28.6797H64.5096V18.2684C64.5096 14.3543 66.5059 12.0852 69.6347 12.0852C72.4121 12.0852 74.0943 14.4328 74.0943 17.5244V28.6797H77.2272V18.2684C77.2272 13.9617 79.6947 12.0852 82.3151 12.0852C85.4852 12.0852 86.816 14.6271 86.816 17.5244V28.6797H89.9076V17.76C89.9076 12.2423 86.9731 9.30777 82.7449 9.30777Z" fill="var(--fill-0, #599D15)"/>
<path id="Vector_4" d="M124.291 9.30777C118.653 9.30777 114.272 13.4905 114.272 19.2851C114.272 25.0797 118.616 29.3451 124.291 29.3451C129.966 29.3451 134.31 24.8069 134.31 19.2851C134.31 13.7633 130.123 9.30777 124.291 9.30777ZM124.291 26.5263C120.691 26.5263 117.48 23.5133 117.48 19.2851C117.48 15.0569 120.298 12.0852 124.291 12.0852C128.284 12.0852 131.098 15.3338 131.098 19.2851C131.098 23.2364 128.242 26.5263 124.291 26.5263Z" fill="var(--fill-0, #599D15)"/>
<path id="Vector_5" d="M102.472 9.29537C98.9508 9.29537 97.0661 10.5022 95.7435 11.8166L95.384 12.1968V1.46725H92.342V19.7025C92.342 25.6418 96.9173 29.3451 102.166 29.3451C107.949 29.3451 112.33 24.8937 112.33 19.1735C112.33 13.8625 107.763 9.29537 102.472 9.29537ZM102.162 26.5263C98.3309 26.5263 95.0864 23.505 95.0864 19.4587C95.0864 15.4124 97.8184 12.0852 102.228 12.0852C106.638 12.0852 109.234 15.6521 109.234 19.3843C109.234 23.4471 106.485 26.5263 102.158 26.5263H102.162Z" fill="var(--fill-0, #599D15)"/>
<path id="Vector_6" d="M170.735 17.9336H160.762V9.93187H158.484V28.6797H160.762V20.0208H170.735V28.6797H173.016V9.93187H170.735V17.9336Z" fill="var(--fill-0, #599D15)"/>
<path id="Vector_7" d="M188.189 15.4289C188.189 12.8457 186.511 9.93187 181.84 9.93187H176.422V28.6797H178.703V20.8474H181.208L186.866 28.6797H189.755L183.845 20.6242C186.205 20.1572 188.185 18.0948 188.185 15.4289H188.189ZM178.703 18.7561V12.0232H182.084C184.506 12.0232 185.825 13.2342 185.825 15.433C185.825 17.2475 184.589 18.7602 182.109 18.7602H178.703V18.7561Z" fill="var(--fill-0, #599D15)"/>
<path id="Vector_8" d="M193.822 10.6221C193.707 10.3576 193.549 10.1261 193.347 9.93187C193.149 9.73761 192.917 9.58469 192.653 9.47309C192.388 9.3615 192.103 9.30777 191.805 9.30777C191.508 9.30777 191.223 9.3615 190.954 9.47309C190.685 9.58469 190.454 9.73761 190.251 9.93187C190.049 10.1261 189.892 10.3576 189.776 10.6221C189.66 10.8866 189.602 11.1759 189.602 11.4818C189.602 11.7876 189.66 12.0894 189.776 12.358C189.892 12.6267 190.053 12.8581 190.251 13.0524C190.454 13.2508 190.685 13.4037 190.954 13.5111C191.223 13.6186 191.504 13.6765 191.805 13.6765C192.107 13.6765 192.388 13.6227 192.653 13.5111C192.917 13.4037 193.149 13.2508 193.347 13.0524C193.545 12.854 193.702 12.6225 193.822 12.358C193.938 12.0894 193.996 11.8 193.996 11.4818C193.996 11.1635 193.938 10.8866 193.822 10.6221ZM193.463 12.2299C193.372 12.4572 193.244 12.6556 193.082 12.825C192.921 12.9904 192.731 13.1226 192.512 13.2218C192.293 13.3169 192.057 13.3665 191.805 13.3665C191.553 13.3665 191.309 13.3169 191.09 13.2218C190.871 13.1268 190.677 12.9945 190.516 12.825C190.355 12.6556 190.226 12.4613 190.136 12.2299C190.045 12.0026 189.999 11.7546 189.999 11.4859C189.999 11.2173 190.045 10.9817 190.136 10.7544C190.226 10.527 190.355 10.3328 190.516 10.1675C190.677 10.0021 190.867 9.86987 191.09 9.77481C191.309 9.67975 191.549 9.63015 191.805 9.63015C192.062 9.63015 192.293 9.67561 192.512 9.77481C192.731 9.86987 192.921 10.0021 193.082 10.1675C193.244 10.3328 193.372 10.5312 193.463 10.7544C193.554 10.9817 193.599 11.2255 193.599 11.4859C193.599 11.7463 193.554 12.0026 193.463 12.2299Z" fill="var(--fill-0, #599D15)"/>
<path id="Vector_9" d="M192.64 11.4529C192.768 11.3454 192.834 11.1759 192.834 10.9486C192.834 10.7048 192.76 10.5188 192.615 10.3989C192.471 10.279 192.243 10.2171 191.942 10.2171H190.954V12.7754H191.351V11.676H191.772L192.467 12.7754H192.892L192.161 11.6471C192.351 11.6264 192.512 11.5644 192.64 11.457V11.4529ZM191.764 11.3495H191.351V10.5353H191.876C191.942 10.5353 192.008 10.5394 192.078 10.5518C192.148 10.5601 192.206 10.5808 192.26 10.6056C192.314 10.6345 192.355 10.6717 192.388 10.7213C192.421 10.7709 192.438 10.8412 192.438 10.9238C192.438 11.0271 192.421 11.1057 192.384 11.1594C192.347 11.2173 192.297 11.2586 192.235 11.2834C192.173 11.3123 192.103 11.3289 192.02 11.333C191.942 11.3371 191.855 11.3413 191.764 11.3413V11.3495Z" fill="var(--fill-0, #599D15)"/>
<path id="Vector_10" d="M146.275 9.30777C140.637 9.30777 136.256 13.4905 136.256 19.2851C136.256 25.0797 140.6 29.3451 146.275 29.3451C151.95 29.3451 156.294 24.8069 156.294 19.2851C156.294 13.7633 152.107 9.30777 146.275 9.30777ZM146.275 26.5263C142.675 26.5263 139.464 23.5133 139.464 19.2851C139.464 15.0569 142.282 12.0852 146.275 12.0852C150.268 12.0852 153.082 15.3338 153.082 19.2851C153.082 23.2364 150.226 26.5263 146.275 26.5263Z" fill="var(--fill-0, #599D15)"/>
<path id="Vector_11" d="M7.26601 0C7.24121 -0.00826622 7.22881 0.0206656 7.24534 0.0413311C10.3658 3.56274 12.6267 7.82398 13.7591 10.556C12.3291 9.02258 10.9651 7.4272 9.43589 6.36499C6.33193 4.19924 3.06264 3.1329 0.0247987 2.72785C0 2.72785 -0.0123993 2.75679 0.00826622 2.77332C7.4396 8.73326 5.70783 11.8496 15.4082 13.0813C15.4248 13.0813 15.4413 13.0648 15.433 13.0482C13.9988 8.62994 13.5318 5.35238 11.0974 2.74852C10.3328 1.93016 8.0761 0.281052 7.26601 0Z" fill="var(--fill-0, #599D15)"/>
</g>
<defs>
<clipPath id="clip0_19_2243">
<rect width="194" height="29.3451" fill="white"/>
</clipPath>
</defs>
</svg>
