<svg preserveAspectRatio="none" width="100%" height="100%" overflow="visible" style="display: block;" viewBox="0 0 24 19.0204" fill="none" xmlns="http://www.w3.org/2000/svg">
<g id="Group 1">
<path id="Vector" d="M17.5206 5.84643C15.207 5.84643 13.9691 6.64155 13.0992 7.50214L12.8622 7.75159V0H10.8635V12.6844C10.8635 16.5883 13.8693 19.0204 17.3211 19.0204C21.122 19.0204 24 16.0956 24 12.3352C23.9969 8.84604 20.9973 5.84643 17.5206 5.84643ZM17.3211 17.2025C14.811 17.2025 12.6876 15.2226 12.6876 12.5722C12.6876 9.92179 14.4774 7.74224 17.3647 7.74224C20.2521 7.74224 21.9546 10.0777 21.9546 12.5223C21.9546 15.1851 20.1554 17.2025 17.3211 17.2025Z" fill="var(--fill-0, #48413F)"/>
<path id="Vector_2" d="M6.8567 1.53411C6.34533 0.99468 4.41211 -0.193315 4.6522 0.0654868C7.10303 2.70963 8.3565 5.91504 8.83981 6.8037C8.39704 6.26427 7.87632 5.78096 7.28076 5.17917C6.77563 4.6678 6.24867 4.2032 5.74665 3.89451C5.41614 3.68872 5.23217 3.57647 4.89541 3.40497C3.38625 2.61921 1.92387 2.14526 1.36261 2.00494C0.676627 1.83345 0 1.78979 0 1.78979C0 1.78979 2.1889 3.63571 3.12433 4.81123C4.06288 5.98676 5.01702 7.04067 6.07405 7.47097C7.13109 7.90127 7.49903 8.02599 8.32844 8.15072C9.0456 8.25985 9.91867 8.42199 9.91867 8.42199L9.03313 5.51592C8.50617 3.98805 8.34715 3.10875 6.8567 1.53411Z" fill="var(--fill-0, #48413F)"/>
</g>
</svg>
