<svg width="16" height="17" viewBox="0 0 16 17" fill="none" xmlns="http://www.w3.org/2000/svg">
<path d="M14 0C15.0938 0 16 0.90625 16 2V11C16 12.125 15.0938 13 14 13H9.65625L5.78125 15.9062C5.625 16.0312 5.4375 16.0312 5.25 15.9688C5.09375 15.875 5 15.7188 5 15.5V13H2C0.875 13 0 12.125 0 11V2C0 0.90625 0.875 0 2 0H14ZM9.34375 3.65625L8.4375 4C8.375 4.03125 8.34375 4.09375 8.34375 4.15625C8.34375 4.25 8.375 4.3125 8.4375 4.34375L9.34375 4.65625L9.65625 5.5625C9.6875 5.625 9.75 5.65625 9.84375 5.65625C9.90625 5.65625 9.96875 5.625 10 5.5625L10.3438 4.65625L11.2188 4.34375C11.2812 4.3125 11.3438 4.25 11.3438 4.15625C11.3438 4.09375 11.2812 4.03125 11.2188 4L10.3438 3.65625L10 2.78125C9.96875 2.71875 9.90625 2.65625 9.84375 2.65625C9.75 2.65625 9.6875 2.71875 9.65625 2.78125L9.34375 3.65625ZM7.34375 5.59375L6.53125 3.8125C6.5 3.71875 6.40625 3.65625 6.3125 3.65625C6.21875 3.65625 6.125 3.71875 6.09375 3.8125L5.25 5.59375L3.46875 6.40625C3.375 6.46875 3.34375 6.5625 3.34375 6.65625C3.34375 6.75 3.375 6.84375 3.46875 6.875L5.25 7.6875L6.09375 9.46875C6.125 9.5625 6.21875 9.625 6.3125 9.625C6.40625 9.625 6.5 9.5625 6.53125 9.46875L7.34375 7.6875L9.125 6.875C9.21875 6.84375 9.28125 6.75 9.28125 6.65625C9.28125 6.5625 9.21875 6.46875 9.125 6.40625L7.34375 5.59375ZM9.65625 7.78125L9.34375 8.65625L8.4375 9C8.375 9.03125 8.34375 9.09375 8.34375 9.15625C8.34375 9.25 8.375 9.3125 8.4375 9.34375L9.34375 9.65625L9.65625 10.5625C9.6875 10.625 9.75 10.6562 9.84375 10.6562C9.90625 10.6562 9.96875 10.625 10 10.5625L10.3438 9.65625L11.2188 9.34375C11.2812 9.3125 11.3438 9.25 11.3438 9.15625C11.3438 9.09375 11.2812 9.03125 11.2188 9L10.3438 8.65625L10 7.78125C9.96875 7.71875 9.90625 7.65625 9.84375 7.65625C9.75 7.65625 9.6875 7.71875 9.65625 7.78125Z" fill="#2E7918"/>
</svg>
