<svg xmlns="http://www.w3.org/2000/svg" viewBox="0 0 32 32">
  <circle cx="16" cy="16" r="16" fill="#2E7918"/>
  <g transform="translate(5, 7.25) scale(0.596)" fill="white">
    <!-- bamboo leaf mark -->
    <path d="M7.26598 -1.73941e-05C7.24118 -0.00828362 7.22878 0.0206482 7.24531 0.0413137C10.3658 3.56272 12.6266 7.82396 13.7591 10.556C12.329 9.02257 10.9651 7.42718 9.43586 6.36497C6.3319 4.19922 3.06261 3.13288 0.0247688 2.72784C-2.98873e-05 2.72784 -0.0124292 2.75677 0.00823634 2.7733C7.43957 8.73325 5.7078 11.8496 15.4082 13.0813C15.4247 13.0813 15.4413 13.0647 15.433 13.0482C13.9988 8.62992 13.5318 5.35236 11.0974 2.7485C10.3327 1.93015 8.07607 0.281034 7.26598 -1.73941e-05Z"/>
    <!-- "b" letterform -->
    <path d="M27.047 9.29537C23.5256 9.29537 21.6409 10.5022 20.3183 11.8166L19.9587 12.1968V0H16.9167V19.7025C16.9167 25.6418 21.4921 29.3451 26.7412 29.3451C32.5234 29.3451 36.9045 24.8937 36.9045 19.1735C36.9045 13.8625 32.3374 9.29537 27.047 9.29537ZM26.7412 26.5263C22.9098 26.5263 19.6653 23.505 19.6653 19.4587C19.6653 15.4124 22.3973 12.0852 26.8073 12.0852C31.2173 12.0852 33.8129 15.6521 33.8129 19.3843C33.8129 23.4471 31.0644 26.5263 26.737 26.5263H26.7412Z"/>
  </g>
</svg>
