<svg width="194" height="30" viewBox="0 0 194 30" fill="none" xmlns="http://www.w3.org/2000/svg">
<g clip-path="url(#clip0_3_757)">
<path d="M27.047 9.29537C23.5256 9.29537 21.6409 10.5022 20.3183 11.8166L19.9587 12.1968V0H16.9167V19.7025C16.9167 25.6418 21.4921 29.3451 26.7412 29.3451C32.5234 29.3451 36.9045 24.8937 36.9045 19.1735C36.9045 13.8625 32.3374 9.29537 27.047 9.29537ZM26.7412 26.5263C22.9098 26.5263 19.6653 23.505 19.6653 19.4587C19.6653 15.4124 22.3973 12.0852 26.8073 12.0852C31.2173 12.0852 33.8129 15.6521 33.8129 19.3843C33.8129 23.4471 31.0644 26.5263 26.737 26.5263H26.7412Z" fill="#2E7918"/>
<path d="M55.4044 12.6308H55.3631C54.0694 11.1056 52.0773 9.30774 48.6716 9.30774C43.0753 9.30774 38.8472 13.4904 38.8472 19.2851C38.8472 25.3897 43.3895 29.3451 48.4732 29.3451C51.6433 29.3451 53.9537 27.8199 55.3218 26.175H55.4003V28.6796H58.4918V9.93184H55.4003V12.6308H55.4044ZM48.7088 26.5304C44.1376 26.5304 41.9305 22.8478 41.9305 19.2851C41.9305 15.7223 44.1376 12.0811 48.7873 12.0811C52.4286 12.0811 55.4085 14.9866 55.4085 19.4008C55.4085 23.5835 52.193 26.5263 48.7088 26.5263V26.5304Z" fill="#2E7918"/>
<path d="M82.7448 9.30774C79.4962 9.30774 77.2271 11.304 76.2889 13.1805C75.5036 10.9899 73.1188 9.30774 70.1843 9.30774C67.7581 9.30774 65.8404 10.6014 64.5881 12.2794H64.5095V9.93184H61.4138V28.6796H64.5095V18.2683C64.5095 14.3543 66.5058 12.0852 69.6346 12.0852C72.412 12.0852 74.0942 14.4328 74.0942 17.5244V28.6796H77.2271V18.2683C77.2271 13.9616 79.6946 12.0852 82.315 12.0852C85.4851 12.0852 86.8159 14.6271 86.8159 17.5244V28.6796H89.9075V17.76C89.9075 12.2422 86.973 9.30774 82.7448 9.30774Z" fill="#2E7918"/>
<path d="M124.291 9.30774C118.653 9.30774 114.272 13.4904 114.272 19.2851C114.272 25.0797 118.616 29.3451 124.291 29.3451C129.966 29.3451 134.31 24.8069 134.31 19.2851C134.31 13.7632 130.123 9.30774 124.291 9.30774ZM124.291 26.5263C120.691 26.5263 117.48 23.5132 117.48 19.2851C117.48 15.0569 120.298 12.0852 124.291 12.0852C128.283 12.0852 131.098 15.3338 131.098 19.2851C131.098 23.2363 128.242 26.5263 124.291 26.5263Z" fill="#2E7918"/>
<path d="M102.472 9.2954C98.9509 9.2954 97.0662 10.5023 95.7436 11.8166L95.384 12.1968V1.46729H92.342V19.7026C92.342 25.6419 96.9174 29.3451 102.166 29.3451C107.949 29.3451 112.33 24.8938 112.33 19.1735C112.33 13.8625 107.763 9.2954 102.472 9.2954ZM102.162 26.5263C98.3309 26.5263 95.0864 23.505 95.0864 19.4587C95.0864 15.4124 97.8184 12.0852 102.228 12.0852C106.638 12.0852 109.234 15.6521 109.234 19.3843C109.234 23.4472 106.486 26.5263 102.158 26.5263H102.162Z" fill="#2E7918"/>
<path d="M170.735 17.9336H160.761V9.93188H158.484V28.6797H160.761V20.0208H170.735V28.6797H173.016V9.93188H170.735V17.9336Z" fill="#2E7918"/>
<path d="M188.189 15.4289C188.189 12.8457 186.511 9.93188 181.84 9.93188H176.422V28.6797H178.703V20.8474H181.208L186.866 28.6797H189.755L183.845 20.6242C186.205 20.1572 188.185 18.0948 188.185 15.4289H188.189ZM178.703 18.7561V12.0232H182.084C184.506 12.0232 185.825 13.2342 185.825 15.4331C185.825 17.2475 184.589 18.7602 182.109 18.7602H178.703V18.7561Z" fill="#2E7918"/>
<path d="M193.822 10.6221C193.706 10.3575 193.549 10.1261 193.347 9.93184C193.149 9.73758 192.917 9.58466 192.653 9.47306C192.388 9.36147 192.103 9.30774 191.805 9.30774C191.508 9.30774 191.222 9.36147 190.954 9.47306C190.685 9.58466 190.454 9.73758 190.251 9.93184C190.049 10.1261 189.892 10.3575 189.776 10.6221C189.66 10.8866 189.602 11.1759 189.602 11.4818C189.602 11.7876 189.66 12.0893 189.776 12.358C189.892 12.6266 190.053 12.8581 190.251 13.0523C190.454 13.2507 190.685 13.4037 190.954 13.5111C191.222 13.6186 191.504 13.6764 191.805 13.6764C192.107 13.6764 192.388 13.6227 192.653 13.5111C192.917 13.4037 193.149 13.2507 193.347 13.0523C193.545 12.8539 193.702 12.6225 193.822 12.358C193.938 12.0893 193.996 11.8 193.996 11.4818C193.996 11.1635 193.938 10.8866 193.822 10.6221ZM193.463 12.2298C193.372 12.4572 193.244 12.6556 193.082 12.825C192.921 12.9903 192.731 13.1226 192.512 13.2218C192.293 13.3169 192.057 13.3665 191.805 13.3665C191.553 13.3665 191.309 13.3169 191.09 13.2218C190.871 13.1267 190.677 12.9945 190.516 12.825C190.355 12.6556 190.226 12.4613 190.135 12.2298C190.045 12.0025 189.999 11.7545 189.999 11.4859C189.999 11.2172 190.045 10.9816 190.135 10.7543C190.226 10.527 190.355 10.3328 190.516 10.1674C190.677 10.0021 190.867 9.86984 191.09 9.77478C191.309 9.67972 191.549 9.63012 191.805 9.63012C192.062 9.63012 192.293 9.67559 192.512 9.77478C192.731 9.86984 192.921 10.0021 193.082 10.1674C193.244 10.3328 193.372 10.5311 193.463 10.7543C193.554 10.9816 193.599 11.2255 193.599 11.4859C193.599 11.7463 193.554 12.0025 193.463 12.2298Z" fill="#2E7918"/>
<path d="M192.64 11.4528C192.768 11.3454 192.834 11.1759 192.834 10.9486C192.834 10.7047 192.76 10.5188 192.615 10.3989C192.471 10.279 192.243 10.217 191.942 10.217H190.954V12.7754H191.351V11.676H191.772L192.467 12.7754H192.892L192.161 11.6471C192.351 11.6264 192.512 11.5644 192.64 11.457V11.4528ZM191.764 11.3495H191.351V10.5353H191.876C191.942 10.5353 192.008 10.5394 192.078 10.5518C192.148 10.5601 192.206 10.5808 192.26 10.6056C192.314 10.6345 192.355 10.6717 192.388 10.7213C192.421 10.7709 192.438 10.8411 192.438 10.9238C192.438 11.0271 192.421 11.1057 192.384 11.1594C192.347 11.2173 192.297 11.2586 192.235 11.2834C192.173 11.3123 192.103 11.3288 192.02 11.333C191.942 11.3371 191.855 11.3412 191.764 11.3412V11.3495Z" fill="#2E7918"/>
<path d="M146.275 9.30774C140.637 9.30774 136.256 13.4904 136.256 19.2851C136.256 25.0797 140.6 29.3451 146.275 29.3451C151.95 29.3451 156.294 24.8069 156.294 19.2851C156.294 13.7632 152.107 9.30774 146.275 9.30774ZM146.275 26.5263C142.675 26.5263 139.464 23.5132 139.464 19.2851C139.464 15.0569 142.282 12.0852 146.275 12.0852C150.268 12.0852 153.082 15.3338 153.082 19.2851C153.082 23.2363 150.226 26.5263 146.275 26.5263Z" fill="#2E7918"/>
<path d="M7.26598 -1.73941e-05C7.24118 -0.00828362 7.22878 0.0206482 7.24531 0.0413137C10.3658 3.56272 12.6266 7.82396 13.7591 10.556C12.329 9.02257 10.9651 7.42718 9.43586 6.36497C6.3319 4.19922 3.06261 3.13288 0.0247688 2.72784C-2.98873e-05 2.72784 -0.0124292 2.75677 0.00823634 2.7733C7.43957 8.73325 5.7078 11.8496 15.4082 13.0813C15.4247 13.0813 15.4413 13.0647 15.433 13.0482C13.9988 8.62992 13.5318 5.35236 11.0974 2.7485C10.3327 1.93015 8.07607 0.281034 7.26598 -1.73941e-05Z" fill="#2E7918"/>
</g>
<defs>
<clipPath id="clip0_3_757">
<rect width="194" height="29.3451" fill="white"/>
</clipPath>
</defs>
</svg>
