<svg preserveAspectRatio="none" width="100%" height="100%" overflow="visible" style="display: block;" viewBox="0 0 107.085 128" fill="none" xmlns="http://www.w3.org/2000/svg">
<g id="money-chart" clip-path="url(#clip0_0_220)">
<g id="Union" opacity="0.2">
<path d="M30.5186 7.29797C17.4497 8.03266 7.37221 17.8939 7.37221 30.9633C7.37221 44.0327 17.0166 54.4898 28.6552 54.4898C47.1265 54.4898 53.4526 41.0612 53.4526 27.9918C53.4526 14.9225 42.9827 6.60409 30.5186 7.29797Z" fill="var(--fill-0, #C6C2BF)"/>
<path d="M105.777 126.057C103.358 128.604 93.1579 128 93.068 125.649C92.1608 118.939 90.1992 19.7143 93.3622 14.0898C94.8988 11.3633 107.134 11.2816 107.085 13.7633C107.002 18.5712 106.969 28.5532 106.928 40.7792V40.7801C106.832 69.4681 106.694 110.511 105.777 126.057Z" fill="var(--fill-0, #C6C2BF)"/>
<path d="M80.375 126.057C79.6067 129.061 67.1427 127.69 67.1427 127.69C66.4234 127.69 65.8349 127.102 65.8349 126.384C65.8349 126.384 63.5546 36.498 66.2273 31.9266C69.2922 26.6939 79.5577 29.6 79.5577 29.6C80.2769 29.6 80.8654 30.1878 80.8654 30.9061C80.8654 30.9061 81.5683 121.38 80.375 126.057Z" fill="var(--fill-0, #C6C2BF)"/>
<path d="M38.5774 100.009C38.7816 108.703 38.9979 117.91 38.7899 126.367H38.7817C41.9693 127.673 48.7693 127.135 53.8204 126.367C54.7545 123.433 54.1958 88.5654 53.8914 69.565L53.891 69.5415C53.8653 67.9356 53.8414 66.4435 53.8204 65.0938C53.1338 62.9632 41.3481 62.6612 40.0976 65.502C37.8849 70.5347 38.2119 84.4501 38.5774 100.009Z" fill="var(--fill-0, #C6C2BF)"/>
<path d="M12.3543 94.3328C12.4845 101 12.6647 110.235 12.2679 126.367C15.4555 127.673 22.2556 127.135 27.3066 126.367C28.0901 123.906 27.8234 111.174 27.5373 97.5231C27.4534 93.5165 27.3678 89.4307 27.3066 85.5021C26.6119 83.3796 12.3006 83.2 12.2679 86.3021C12.2447 88.7155 12.2941 91.2497 12.3543 94.3328Z" fill="var(--fill-0, #C6C2BF)"/>
</g>
<g id="Union_2">
<path d="M9.98762 11.3062C2.52551 19.3143 2.73802 32.7919 10.4617 40.5143C17.8339 48.4735 31.1725 49.3062 39.4192 42.245C47.952 35.5021 49.6602 22.2613 43.2525 13.5184C37.0572 4.44904 23.9801 1.71434 14.63 7.48577C13.6329 8.08169 12.3415 7.76332 11.7367 6.7674C11.1482 5.78781 11.4588 4.51434 12.4232 3.91026C15.1612 2.20414 18.2262 1.0123 21.4056 0.424546C24.5522 -0.187699 27.9196 -0.0734129 31.0744 0.465363C52.529 4.78373 59.3454 32.0735 42.5332 46.0245C32.4066 54.6694 15.9459 53.6409 7.01259 43.7878C-2.28849 34.2776 -2.35387 18.0164 6.88999 8.47353C8.82703 6.52251 11.7694 9.24087 9.98762 11.3225V11.3062Z" fill="var(--fill-0, #C6C2BF)"/>
<path d="M27.6417 23.5918H24.1763C22.795 23.5918 21.6753 22.6449 21.6753 21.4775C21.6753 20.3102 22.8032 19.3633 24.1763 19.3633H30.1508C31.3196 19.3633 32.897 18.6122 33.2158 17.4857C33.7062 15.7633 31.3278 15.1265 30.1508 15.1265H28.034V13.0122C28.034 11.8449 27.0859 10.898 25.9171 10.898C24.7484 10.898 23.8003 11.8449 23.8003 13.0122V15.1673C20.2695 15.3551 17.4416 17.298 17.4416 20.6694C17.4416 24.0408 19.6974 26.9388 23.408 26.9388C25.9171 26.9388 30.396 26.9388 30.1508 29.9347C30.0528 31.0939 29.023 32.049 27.6499 32.049H20.6209C19.4522 32.049 18.5041 32.9959 18.5041 34.1633C18.5041 35.3306 19.4522 36.2775 20.6209 36.2775H23.8003V38.3918C23.8003 39.5592 24.7484 40.5061 25.9171 40.5061C27.0859 40.5061 28.034 39.5592 28.034 38.3918V36.2367C31.5648 36.049 34.3927 33.3061 34.3927 29.9265C34.3927 26.5469 31.3687 23.5755 27.6499 23.5755L27.6417 23.5918Z" fill="var(--fill-0, #C6C2BF)"/>
<path fill-rule="evenodd" clip-rule="evenodd" d="M77.2813 69.8176C77.3158 78.7708 77.3494 87.5288 77.3264 95.6082H77.3346L77.4409 120.343C77.449 121.698 76.3457 122.792 74.9889 122.792H61.9854C59.6152 122.841 57.482 120.808 57.4493 118.433L57.3757 115.241C57.0564 98.2784 57.2137 74.0355 57.3565 52.0402L57.3565 52.0372C57.4293 40.8168 57.4983 30.1814 57.4983 21.396C57.4983 20.0409 58.5935 18.947 59.9503 18.947H74.9807C76.3456 18.9062 77.4735 20.0327 77.4327 21.396C77.152 36.1868 77.2179 53.3334 77.2813 69.8176ZM72.5369 117.894L72.635 95.6082C72.6112 87.5075 72.6461 78.7452 72.6818 69.7929V69.7918C72.7439 54.2243 72.8083 38.0818 72.5696 23.845H62.4022C62.415 32.0666 62.4765 41.6418 62.5411 51.6843L62.5411 51.6873C62.683 73.7512 62.8393 98.0695 62.5248 115.241C62.5248 115.241 62.4839 117.061 62.4676 117.894H72.5369Z" fill="var(--fill-0, #C6C2BF)"/>
<path d="M101.364 105.535C100.007 105.535 98.9118 104.441 98.9118 103.086V98.6449C98.9118 97.2898 100.007 96.1959 101.364 96.1959C102.72 96.1959 103.816 97.2898 103.816 98.6449V103.086C103.816 104.441 102.72 105.535 101.364 105.535Z" fill="var(--fill-0, #C6C2BF)"/>
<path fill-rule="evenodd" clip-rule="evenodd" d="M45.4581 57.331C46.504 57.3458 47.5537 57.3606 48.5977 57.347L48.5895 57.3388C49.7665 57.3225 50.7227 58.2694 50.7391 59.4368L51.0415 120.335C50.9423 122.817 48.6562 122.87 46.657 122.916C46.1846 122.927 45.7279 122.937 45.3203 122.98C41.8303 123.127 38.4058 123.167 34.8749 122.914C32.5946 122.784 30.8783 120.612 31.0989 118.384V113.559C31.048 101.146 31.0878 79.196 31.1145 64.5216V64.5188L31.1146 64.4545C31.1178 62.6814 31.1208 61.0152 31.1235 59.4857C31.0989 58.1551 32.1778 57.0531 33.5182 57.0531C33.9404 57.0612 34.3627 57.0667 34.7849 57.0721C35.6295 57.083 36.4741 57.0939 37.3187 57.1266C38.8248 57.2098 40.7504 57.244 42.5147 57.2753L42.5158 57.2753C43.3456 57.2901 44.1401 57.3042 44.8381 57.3225C45.0445 57.3252 45.2513 57.3281 45.4581 57.331ZM36.0356 104.204V104.206C36.0274 109.258 36.0192 114.315 36.0192 118.073V118.082C39.3538 118.278 42.7784 118.229 46.1539 118.041C46.1785 113.918 46.4236 65.5021 46.44 61.649C44.1816 61.665 41.8953 61.7263 39.6176 61.7874C38.4086 61.8198 37.2016 61.8521 36.0028 61.8776L36.0519 90.3919C36.0519 94.1266 36.0437 99.1625 36.0356 104.204Z" fill="var(--fill-0, #C6C2BF)"/>
<path fill-rule="evenodd" clip-rule="evenodd" d="M22.0758 77.4449C19.5666 77.4449 17.0656 77.4857 14.5564 77.5918C13.8853 77.6137 13.2147 77.6379 12.5444 77.662L12.5421 77.6621C10.7072 77.7282 8.87435 77.7943 7.0371 77.8122C5.88469 77.8122 4.95294 78.751 4.94477 79.902C4.94477 89.1592 4.79765 101.82 4.66688 111.078C4.65883 111.524 4.65077 112.916 4.64272 114.308C4.63443 115.741 4.62614 117.174 4.61784 117.576V118.392C4.56063 120.751 6.64479 122.841 9.01501 122.808L22.0839 122.841C23.457 122.841 24.5686 121.739 24.5686 120.367C24.6266 112.009 24.594 101.143 24.5643 91.2695L24.5643 91.2679C24.5522 87.2374 24.5406 83.3721 24.5359 79.9102C24.5359 78.5551 23.4325 77.4531 22.0758 77.4531V77.4449ZM19.6156 82.3347L19.5666 100.122C19.5404 104.856 19.5561 109.584 19.5718 114.316C19.5757 115.5 19.5797 116.685 19.5829 117.869L9.46454 117.894V117.567C9.43302 113.311 9.37841 108.737 9.32273 104.074C9.23403 96.6446 9.14263 88.9889 9.13761 82.0327C10.9439 82.0735 12.7583 82.1388 14.5646 82.2041C16.2483 82.2775 17.9319 82.3102 19.6156 82.3265V82.3347Z" fill="var(--fill-0, #C6C2BF)"/>
<path d="M103.816 91.4939C103.816 92.849 102.72 93.9429 101.364 93.9429L101.356 93.951C99.9988 93.951 98.9036 92.8571 98.9036 91.502V7.37959C95.5281 7.18368 92.1444 7.23266 88.7689 7.41225V117.894H98.9036V109.682C98.9935 106.424 103.734 106.473 103.808 109.682V120.343C103.808 121.698 102.712 122.792 101.356 122.792H86.3251C84.9683 122.792 83.8731 121.698 83.8731 120.343V5.11021C83.7587 3.73061 84.9275 2.52245 86.3251 2.66123C88.8261 2.87347 91.3353 2.94694 93.8444 2.96327C96.3536 2.98776 98.8627 2.93061 101.364 2.66123C102.565 2.52245 103.66 3.37959 103.799 4.58776C103.861 4.68657 103.838 33.4455 103.818 57.8497C103.804 75.7837 103.791 91.3659 103.816 91.4939Z" fill="var(--fill-0, #C6C2BF)"/>
</g>
</g>
<defs>
<clipPath id="clip0_0_220">
<rect width="107.085" height="128" fill="white"/>
</clipPath>
</defs>
</svg>
